<?xml version="1.0" encoding="utf-8"?>
<!-- Generator: Adobe Illustrator 26.0.1, SVG Export Plug-In . SVG Version: 6.00 Build 0)  -->
<svg version="1.1" id="Layer_1" xmlns="http://www.w3.org/2000/svg" xmlns:xlink="http://www.w3.org/1999/xlink" x="0px" y="0px"
	 viewBox="0 0 1080 1080" style="enable-background:new 0 0 1080 1080;" xml:space="preserve">
<style type="text/css">
	.Drop_x0020_Shadow{fill:none;}
	.Outer_x0020_Glow_x0020_5_x0020_pt{fill:none;}
	.Blue_x0020_Neon{fill:none;stroke:#8AACDA;stroke-width:7;stroke-linecap:round;stroke-linejoin:round;}
	.Chrome_x0020_Highlight{fill:url(#SVGID_1_);stroke:#FFFFFF;stroke-width:0.3629;stroke-miterlimit:1;}
	.Jive_GS{fill:#FFDD00;}
	.Alyssa_GS{fill:#A6D0E4;}
	.st0{fill:#3968B1;}
	.st1{fill:#333333;}
	.st2{fill:#4173B8;}
	.st3{fill:#FFFFFF;}
</style>
<linearGradient id="SVGID_1_" gradientUnits="userSpaceOnUse" x1="0" y1="0" x2="6.123234e-17" y2="-1">
	<stop  offset="0" style="stop-color:#656565"/>
	<stop  offset="0.618" style="stop-color:#1B1B1B"/>
	<stop  offset="0.6292" style="stop-color:#545454"/>
	<stop  offset="0.9831" style="stop-color:#3E3E3E"/>
</linearGradient>
<g>
	<path class="st0" d="M157.04,534.51c2.51-1.97,5.4-2.37,7.62-2.68c5.89-0.79,10.62,0.95,12.55,1.66c4.15,1.58,6.66,3.71,8.3,5.13
		c4.44,3.79,6.76,7.89,8.11,11.13c-3.96-1.74-7.05-1.89-8.98-1.89c-2.22,0.08-4.44,0.63-8.98,1.89c-5.31,1.42-4.83,1.66-6.56,1.89
		c-0.77,0.08-7.43,0.71-12.26-3.23c-2.99-2.45-3.38-5.37-3.47-5.84C153.46,542.09,153.08,537.75,157.04,534.51z"/>
	<path class="st0" d="M130.01,560.71c2.32-1.97,5.12-2.37,7.24-2.6c5.6-0.71,10.04,0.95,11.87,1.66c3.86,1.5,6.18,3.55,7.91,5.13
		c4.25,3.79,6.47,7.97,7.72,11.28c-5.89-0.79-10.42-0.47-13.51,0c-4.54,0.71-5.69,1.58-9.65,1.58c-2.51,0-7.82,0-11.58-3.23
		c-2.8-2.37-3.28-5.29-3.28-5.84C126.63,568.2,126.25,563.94,130.01,560.71z"/>
	<path class="st0" d="M155.88,606.71c2.22,4.02,1.06,7.81,0.68,8.76c-1.06,2.92-2.99,4.66-6.66,7.73c-2.8,2.37-5.5,4.1-9.27,6.39
		c-4.25,2.6-4.44,2.45-5.69,3.47c-2.22,1.81-4.63,5.05-5.12,11.13c-2.41-4.26-3.57-7.97-4.15-10.65c-0.87-3.87-0.77-6.79-0.77-10.26
		c0-3.95,0.48-6.31,0.97-8.21c0.19-0.79,0.39-1.74,0.87-2.76c1.06-2.68,3.28-8.36,9.46-11.13c4.63-2.05,8.88-1.42,9.65-1.26
		C146.61,600.16,152.89,601.42,155.88,606.71z"/>
	<g>
		<path class="st1" d="M532.75,900.07"/>
		<path class="st2" d="M528.93,493.29"/>
		<path class="st2" d="M528.93,493.29"/>
		<path class="st1" d="M381.98,188.43c1.83-0.63,2.03-3.47,2.12-10.02c0.29-10.81,0.39-16.18,0.1-21.62
			c-0.48-9.39,0.39-16.25,2.22-29.83c0.58-4.5,1.83-13.57,4.44-24.22c1.35-5.44,10.04-39.06,32.14-61.47
			c3.47-3.47,8.59-8.05,16.79-10.18c2.22-0.55,9.36-2.21,17.57,0c6.85,1.81,11.2,5.37,13.7,7.5C487.47,52,495.38,58.87,503.1,62.42
			c13.9,6.31,31.37,5.68,44.11,1.26c12.35-4.26,19.98-12.15,24.51-16.73c6.85-6.94,13.61-16.89,15.15-19.1
			c3.76-5.52,5.98-9.47,11.48-14.36c4.05-3.63,8.49-7.5,14.48-7.5c3.76,0,6.95,1.5,11.48,4.73c12.64,9.07,18.34,19.02,18.34,19.02
			c8.2,10.49,13.13,19.81,16.21,26.43c2.61,5.68,4.73,11.91,8.98,24.22c2.61,7.73,4.73,14.2,6.18,18.7
			c5.98,22.8,12.35,53.89,15.25,91.77c18.34-11.52,36.58-23.12,54.91-34.64c18.05-10.42,34.07-18.23,46.52-23.83
			c22.39-10.1,22.39-8.21,77.02-27.22c3.28-1.18,9.94-3.47,19.11-4.1c0,0,12.74-0.87,24.42,2.68c28.57,8.68,39.47,40.48,41.21,45.53
			c2.7,7.89,5.4,19.96,2.32,44.19c-6.56,50.97-27.51,82.22-27.51,82.22c-6.76,11.05-30.01,46.48-78.56,76.46
			c-54.05,33.46-151.14,67.46-150.27,79.85c0,0.55,0.48,4.18-0.77,8.84c-1.35,5.05-3.96,8.44-5.21,10.02
			c-2.51,2.92-3.96,4.66-6.66,5.6c-5.5,1.81-9.07-2.21-13.99-1.34c-6.18,1.1-7.72,8.84-12.16,17.67
			c-9.36,18.31-19.59,17.2-19.78,25.8c-0.29,13.49,24.61,14.91,36.19,38.03c5.89,11.76,1.54,15.47,8.78,22.8
			c8.49,8.52,18.63,7.73,37.35,15.31c11.58,4.66,20.94,10.34,28.37,15.78c7.43,4.97,14.86,9.94,22.29,14.91
			c1.64,1.26,7.24,5.29,15.63,5.6c5.02,0.16,9.07-1.03,11.2-1.89c4.05-0.55,10.42-1.1,17.85,0c5.02,0.71,11,2.21,18.82,6
			c21.8,10.56,37.16,30.38,37.16,30.38c32.26,41.45,54.7,117.29,60.03,135.95c8.78,30.73,13.82,54.3,18.82,81.59
			c2.99,16.33,4.25,24.62,4.83,29.51c0.96,8.14,2.32,18.69,2.7,32.67c0.49,17.92-0.8,31.26-1.64,39.69
			c-0.98,9.8-1.56,14.7-2.82,20.31c-2.72,12.14-6.59,20.68-9.8,26.44c-0.13,0.24-0.24,0.43-0.28,0.51
			c-1.3,2.29-5.13,8.66-12.92,17.55c-7.47,8.53-16.09,18.38-30.54,27.08c-5.37,3.23-16.38,9.73-32.23,12.95
			c-17.32,3.52-31.18,1.26-45.26-1.18c-10.59-1.83-11.69-2.9-41.82-11.77c-19.19-5.65-36.62-10.77-56.62-15.51
			c-14.62-3.46-28.6-6.24-30.54-6.64c-3.86-0.8-8.3-1.65-14.14-2.67c-16.89-3-27.22-3.87-37.93-3.71
			c-7.82,0.16-13.32,0.79-22.29,1.89c-14.67,1.74-25.09,3.95-33.49,5.6c-21.62,4.34-34.74,6.94-49.12,9.31
			c-19.77,3.25-21.06,2.79-39.86,6.15c-17.31,3.1-20.16,4.25-33.35,6.74c-14.73,2.79-21.07,3.23-62.39,7.7
			c-14.38,1.56-23.95,2.62-30.68,3.38c-10.43,1.18-17.23,1.92-17.64,1.96c-98.2,10.85-156.46-27.17-156.46-27.17
			c-57.89-37.78-74.23-103.79-74.78-130.69c0,0,0,0,0,0c-0.97-39.04,4.33-70.84,9.59-93.01c9.28-39.15,22.96-67.41,35.92-94.19
			c5.37-11.09-0.13-0.88,31.98-56.52c7.17-12.42,27.49-47.12,45.51-52.98c7.28-2.37,12.55-4.09,17.64-2.1
			c1.86,0.72,5.83,2.14,11.37,2.84c0.93,0.12,1.98,0.09,3.24-0.17c3.27-0.68,7.92-2.92,11.2-4.5c3.28-1.58,3.47-1.81,9.84-5.13
			c2.9-1.5,3.57-1.81,11.2-5.6c5.98-3,8.98-4.5,11.2-5.6c9.84-4.97,11.87-6.23,18.05-9.15c3.76-1.81,6.95-3.16,8.98-3.95
			c0,0,11.1-4.97,26.93-13.41c5.4-2.84,9.36-5.05,12.55-8.84c3.47-4.02,5.31-7.73,5.31-7.73c0.29-0.63,0.97-1.89,2.03-3.87
			c1.83-3.39,2.41-4.18,2.9-4.81c0.77-0.87,1.93-2.13,3.76-3.39c1.74-4.42,7.82-19.25,17.76-30.54c3.47-3.95,7.24-7.65,11.2-11.2
			c4.44-4.02,7.43-6.15,6.66-7.42c-0.19-0.39-0.97-1.03-10.42-0.39c-4.54,0.24-10.71,0.79-22.29,2.21
			c-0.29,0.08-0.58,0.08-0.77,0.08c-11.87,1.5-10.04,1.1-15.63,1.89c-3.57,0.47-14.38,1.97-30.02,4.89
			c-16.21,3.08-29.05,5.52-45.75,10.42c-11.77,3.47-21.91,7.1-29.73,10.18c-10.13,3.95-17.95,7.58-26.73,11.6
			c-4.73,2.21-12.06,5.52-19.59,9.39c-20.75,10.57-34.65,20.12-51.34,31.72c-5.98,4.02-10.42,7.65-13.42,10.26
			c-1.93,1.74-3.47,3.16-11.2,10.26c-6.85,6.39-8.4,7.73-8.98,7.42c-0.97-0.47,2.12-6.15,4.83-10.18c2.61-3.87,5.31-6.63,7.62-9.07
			c4.73-4.89,9.46-8.84,14.38-12.47c40.73-29.75,84.83-48.45,84.83-48.45c13.42-5.68,24.22-9.47,30.5-11.68
			c10.04-3.47,24.32-8.44,42.18-12.7c5.12-1.18,10.42-2.37,12.55-2.76c4.63-0.95,13.9-2.92,24.22-4.58
			c16.89-2.68,32.14-3.63,33.49-3.71c15.35-0.95,22.87-0.39,24.51-3.71c0.87-1.81-0.39-3.47-3.76-8.36
			c-12.64-18.39-14.09-23.99-20.75-25.17c-3.67-0.63-4.73,1.1-8.98,0c-5.6-1.42-8.69-5.68-11.2-9.31
			c-7.72-11.2-10.33-16.41-12.55-19.41c-6.95-9.63-19.11-9.86-41.11-15.94c-18.72-5.21-30.98-11.05-55.49-22.57
			c-7.24-3.39-26.73-12.94-48.83-27.62c-19.4-12.94-43.04-28.64-64.57-56.18c-19.69-25.09-27.99-47.82-36.1-69.83
			c-2.51-6.94-5.12-14.83-6.56-24.93c-1.06-7.42-2.99-20.91,1.06-37.64c2.03-8.44,4.25-17.67,11.68-27.22
			c9.55-12.23,22.2-17.75,29.53-20.83c29.34-12.47,58.68-9.15,73.73-7.26c65.92,17.67,88.89,32.59,97.09,38.98
			c28.47,22.17,32.04,25.96,32.04,25.96C372.62,181.96,378.7,189.54,381.98,188.43z"/>
		<path class="st3" d="M393.87,247.29c0.68-23.2,0.77-42.14,0.77-55.08c-0.1-18.31-0.97-32.51,0.77-54.37
			c0.97-11.91,2.32-22.57,5.89-35.11c3.09-10.97,6.66-19.1,8.98-24.22c4.15-9.39,7.24-16.18,13.42-24.22
			c6.37-8.29,11-14.2,20.07-16.73c1.64-0.47,9.84-2.84,17.85,0c3.28,1.1,6.66,3.87,13.42,9.31c2.41,1.89,3.09,2.53,8.98,7.42
			c5.12,4.26,4.83,4.02,11.2,9.31c13.99,11.68,13.42,11.36,15.63,13.02c1.54,1.18,7.72,5.68,16.7,10.18
			c4.25,2.13,17.37,8.52,36.87,12.15c9.75,1.81,15.06,2.84,22.58,2.13c4.92-0.47,21.91-2.21,26.73-12.23
			c1.83-3.79,2.51-10.18-1.54-13.57c-6.66-5.6-20.85,1.1-25.38-4.18c-1.25-1.5-0.97-4.1-0.29-9.23c0.77-6.15,2.9-10.89,4.34-13.73
			c2.51-4.89,4.44-8.84,9.36-12.39c2.03-1.5,5.98-4.42,12.06-5.29c8.98-1.26,16.31,3.08,19.11,4.73c3.57,2.21,8.88,6.39,15.25,19.02
			c6.08,11.99,8.3,22.09,9.17,25.8c5.5,25.41,8.3,38.19,8.4,48.92c0.1,12.15,0.1,33.06-11.48,57.13
			c-11.2,23.36-27.31,37.48-32.04,41.5c-24.61,20.67-51.54,27.14-69.39,31.25C483.63,274.36,420.61,256.37,393.87,247.29z"/>
		<path class="st3" d="M394.65,259.52c5.02,3.55,12.26,8.21,21.33,12.94c22.68,11.68,42.37,15.94,57.23,19.02
			c35.81,7.5,64.66,6.55,73.25,6.15c32.04-1.5,57.91-8.13,75.76-14.12c4.05-1.58,8.11-3.16,12.16-4.73c2.7-0.95,5.4-1.97,8.2-2.92
			c1.54,1.26,3.57,3.24,4.54,6.15c2.51,7.18-3.38,14.36-6.08,17.67c-16.99,20.75-58,29.19-58,29.19
			c-41.4,8.6-74.89,4.66-109.06,0.71c-6.37-0.95-13.03-2.05-19.88-3.31c-9.17-1.74-17.85-3.55-26.06-5.52
			c-14.96-3.79-25.96-7.34-31.27-9.31c-6.66-2.53-11.77-5.37-12.55-5.84c-0.1-0.08-0.77-0.47-1.74-1.1
			c-0.39-0.24-0.77-0.47-1.35-0.79c-0.68-0.39-2.03-1.18-3.57-2.53c0,0-1.83-1.34-3.57-2.92c-7.43-6.47-13.51-14.76-13.51-14.76
			c-6.76-9.31-8.69-15.39-9.36-15.15c-1.06,0.32,0.97,14.91,8.4,27.85c5.89,10.34,16.31,21.62,42.75,34.64
			c12.74,6.31,43.04,19.81,91.49,25.8c20.75,2.6,54.14,6.47,96.9-0.71c3.38-0.55,59.84-10.49,108.29-41.5
			c15.63-10.02,23.16-17.6,32.81-27.22c2.12-2.13,13.7-13.89,20.56-31.25c2.51-6.15,3.38-10.57,0.77-13.57
			c-4.25-4.97-15.06-2.92-16.02-2.68c-12.74,6.31-25.38,12.7-38.12,19.02c-0.77-10.65-1.54-21.3-2.32-31.96
			c4.25-4.5,8.78-9.07,13.7-13.57c21.62-20.04,44.3-34.72,64.86-45.53c10.23-6.15,19.78-10.49,27.51-13.57
			c10.33-4.18,28.66-11.28,53.37-12.94c10.23-0.63,18.72-1.18,29.73,1.34c6.08,1.42,23.16,5.44,34.36,19.02
			c1.45,1.81,7.24,9.15,9.94,25.17c3.96,23.91-2.8,43.32-7.62,56.42c-10.04,27.38-24.9,45.92-29.73,51.68
			c-19.98,23.83-44.4,40.08-77.79,56.42c-97.28,47.42-192.83,56.42-218.89,58.47c-57.52,4.5-101.53,0.39-133.48-2.68
			c-47.97-4.66-93.81-9.15-147.95-29.91c-47.58-18.23-82.13-41.58-103.75-58.47c-11-9.39-19.5-18.38-25.96-25.8
			c-6.27-7.26-31.56-37.72-43.43-82.22c-3.38-12.55-4.63-22.17-3.86-32.67c0.68-9,1.54-20.67,9.94-31.96
			c9.36-12.7,23.07-17.91,29.73-20.36c38.6-14.2,78.85,4.42,88.5,8.84c11.2,5.13,18.34,10.49,32.81,21.07
			c30.02,22.09,47.39,42.85,51.83,48.29c14.09,17.12,23.26,28.41,28.95,46.24c7.24,22.65,4.54,42.21,1.74,53.66"/>
		<path class="st3" d="M414.24,432.64c1.45-1.74,8.01,1.1,16.31,3.63c4.25,1.34,12.26,2.76,28.18,5.76
			c11.87,2.21,27.7,5.21,46.13,6.47c30.59,2.13,45.07-1.97,47.68,3.16c2.03,3.95-3.96,11.44-11.2,13.57
			c-9.36,2.84-17.95-4.34-22.39-0.87c-2.8,2.13-2.22,7.02,0,9.94c3.38,4.42,10.52,4.5,12.16,4.5c5.12,0.08,5.6-1.58,13.22-2.68
			c8.49-1.34,10.81,0.32,13.22-1.81c3.67-3.16,1.64-7.58,3.09-11.76c1.64-4.89,7.43-7.42,12.55-9.71c3.18-1.42,8.11-2.21,17.85-3.71
			c3.57-0.55,10.71-1.66,20.07-1.89c6.76-0.16,9.36,0.24,11.2,1.89c1.74,1.58,1.93,3.71,2.22,7.42c0.19,1.97,0.1,3.47-0.29,8.21
			c-0.97,10.02-1.64,12.55-1.93,13.73c-0.58,1.89-1.25,3.87-2.22,6c-0.77,1.66-2.7,5.92-6.66,11.2c-3.96,5.29-7.14,9.47-13.42,13.02
			c-1.93,1.1-4.73,2.68-8.98,3.71c-5.31,1.34-9.75,0.87-17.85,0c-7.24-0.79-6.66-1.26-13.42-1.89c-3.38-0.32-2.03,0-13.8-0.55
			c-0.87-0.08-4.25-0.32-8.78-0.08c-2.7,0.16-5.02,0.39-6.47,0.71c-1.45,0.24-2.8,0.95-5.69,2.21c-4.05,1.81-6.08,2.68-5.98,3.16
			c0.1,0.39,1.74,0.39,4.92,0.24c6.27-0.32,8.88-0.63,11.68-0.79c5.12-0.24,9.07,0.32,11.87,0.63c1.74,0.24,5.89,0.87,11.1,2.45
			c4.83,1.5,8.4,2.53,12.26,5.13c5.89,3.87,8.4,8.29,8.98,9.31c0.87,1.58,1.93,3.71,2.12,6.71c0.1,1.34,0.19,4.81-2.12,8.21
			c-0.68,1.03-2.22,2.84-5.89,4.89c-3.57,1.97-8.4,3.63-18.72,4.42s-18.34,0.16-20.07,0c-12.16-1.1-21.04-3.79-26.83-5.6
			c-7.24-2.29-10.91-4.1-12.45-4.89c-4.54-2.37-7.91-4.81-9.84-6.31c-1.45-1.1-3.96-3-6.66-5.6c-2.99-2.84-4.92-5.6-8.98-11.2
			c-4.63-6.39-7.43-11.05-8.49-12.94c-1.45-2.45-2.51-4.34-2.9-5.13c-1.83-3.39-4.15-7.97-6.47-13.65c12.84,0,27.12,0.47,42.46,1.89
			c14.67,1.26,28.08,3.16,40.15,5.29c-2.03,1.5-2.32,1.97-2.22,2.13c0.19,0.32,1.93-0.55,5.02-0.79c0.97-0.08,1.64-0.08,2.22-0.08
			c1.64,0.08,2.51,0.39,4.15,0.24c3.18-0.39,3.38-2.21,7.24-3.47c2.03-0.63,2.99-0.55,6.27-0.79c3.38-0.24,13.9-0.79,15.35-4.34
			c0.39-0.87,0-1.74,0-1.89c-0.77-1.81-3.67-2.45-4.15-2.53c-0.58-0.16-1.45-0.24-3.57-0.08c-2.9,0.24-5.12,0.63-5.69,0.79
			c-3.47,0.71-6.37,1.34-8.98,1.89c-3.76,0.63-7.43,1.26-11.2,1.89c-15.06-2.29-31.46-4.26-49.12-5.6
			c-14.96-1.1-29.15-1.74-42.46-1.89c-4.44-5.6-8.98-11.6-13.51-17.99c-6.18-8.84-11.48-17.44-16.02-25.49
			C415.88,437.77,413.08,434.06,414.24,432.64z"/>
		<path class="st3" d="M448.21,514.39c1.83-0.16,3.38,4.81,11.2,16.73c1.74,2.6,3.18,4.81,4.25,6.23l0,0
			c1.35,2.05,6.37,9,18.14,16.1c6.27,3.79,11.68,5.92,15.63,7.42c4.25,1.66,12.93,4.73,24.71,6.79c9.36,1.66,22.78,3.87,39.67,1.34
			c8.01-1.18,21.23-3.16,33.59-11.76c7.33-5.13,12.84-11.76,23.93-24.93c3.28-3.87,5.89-7.18,7.62-9.55
			c0.77,2.68,1.54,5.44,2.22,8.28c0.77,3.16,1.54,6.23,2.22,9.31c1.06,3.47,2.32,10.26-2.22,14.91c-1.16,1.18-2.12,1.74-13.42,5.6
			c-12.06,4.18-13.13,4.34-15.63,5.6c-6.66,3.16-10.71,6.86-13.42,9.31c-1.83,1.66-5.89,5.6-13.42,18.62
			c-4.54,7.81-6.08,11.68-13.42,26.04c-2.8,5.6-5.21,10.1-6.66,13.02c-1.93,5.13-4.63,8.84-6.66,11.2
			c-3.28,3.71-6.76,7.65-11.2,7.42c-2.7-0.16-4.63-1.81-6.66-3.71c-3.57-3.23-4.63-6.15-7.05-10.97c-3.28-6.55-3.18-4.89-6.37-11.44
			c-1.64-3.31-3.38-7.65-6.85-16.25c-2.22-5.52-2.8-7.02-4.54-11.36c-1.74-4.1-3.18-7.42-4.15-9.71c-1.16-3.71-3.18-6.15-4.44-7.42
			c-2.99-3-6.37-4.5-8.98-5.6c-4.15-1.81-7.72-2.45-8.88-2.68c-8.49-1.66-19.3-6.23-24.61-10.34c-9.27-7.26-9.55-19.33-8.98-26.04
			C444.64,518.57,446.57,514.47,448.21,514.39z"/>
		<path class="st3" d="M444.41,637.27c-6.08-5.05-14.19-12.55-22.39-22.65c-12.35-15.31-15.92-24.3-16.79-26.28
			c-4.05-9-10.13-23.04-4.34-35.59c0.29-0.63,3.67-7.73,6.66-7.42c1.35,0.16,1.64,1.74,4.44,5.6c2.51,3.47,5.02,5.84,6.66,7.42
			c0.87,0.87,3.28,3.08,6.66,5.6c1.83,1.34,5.31,3.71,11.29,6.79c10.81,5.44,23.16,9.55,27.89,11.05l0,0
			c7.53,2.68,10.91,1.89,17.85,3.95c3.47,1.03,4.44,1.74,5.12,2.29c2.32,1.97,2.8,4.5,3.09,5.44c1.64,7.18,6.18,13.57,9.17,20.36
			c3.18,7.42,5.02,10.49,7.62,15.86c5.6,11.6,14.28,40.32,14.28,40.32c9.36,33.14,14.96,45.84,13.7,46.24
			c-1.74,0.47-9.07-22.96-27.99-53.89c0,0-15.73-25.72-24.9-46.71v-0.08c-0.77-1.74-3.18-6.08-5.4-6.39
			c-2.32-0.24-4.05,4.02-11.48,14.44c-1.06,1.5-2.61,3.39-5.5,7.18c-5.21,6.63-7.05,8.6-9.65,8.84
			C447.98,639.72,445.76,638.38,444.41,637.27z"/>
		<path class="st1" d="M418.87,553.68"/>
		<path class="st1" d="M406.61,542.56"/>
		<path class="st3" d="M549.55,698.24c-1.25-0.32,1.25-10.81,2.51-16.1c1.54-6.63,3.18-11.52,5.6-18.78
			c4.44-13.49,6.76-20.2,8.88-26.04c3.09-8.28,6.66-17.6,11.2-27.93c10.13-23.51,13.42-26.12,15.63-27.93
			c6.95-5.6,16.12-8.92,22.29-11.2c7.33-2.68,8.3-3.47,17.85-5.6c5.89-1.34,13.61-3.87,20.07-9.31c8.01-6.63,9.75-13.89,12.84-13.41
			c4.05,0.63,4.83,13.02,5.02,15.31c0.19,3.39,0,6.15-0.19,8.05c-0.29,3-0.77,6.15-1.54,9.55c-2.32,10.73-6.37,19.57-10.42,26.51
			c-2.22,3.79-1.25,1.58-10.13,15.39c-2.12,3.23-4.54,6.31-6.76,9.47c-4.05,5.84-5.21,7.5-7.14,7.65c-4.05,0.32-7.82-6.47-8.49-7.65
			c-4.15-5.29-7.05-9.86-8.98-13.02c-1.25-2.13-3.67-6.71-6.66-13.02c-4.05-8.6-5.31-12.23-8.98-13.02c-1.93-0.39-4.44,0-5.98,1.1
			c-1.93,1.42-2.8,4.34-3.47,6.23c-1.06,2.76-0.29,0.08-2.9,6.23c-2.9,6.86-4.54,11.76-4.54,11.76c-2.03,6-4.34,11.91-6.66,17.83
			c-1.35,3.39-2.22,5.68-3.76,9.63c-5.12,13.26-7.05,18.23-8.4,21.7C562.38,672.2,551.48,698.71,549.55,698.24z"/>
		<path class="st3" d="M504.28,860.23c-7.62-3.71-5.31-15.47-4.73-46.08c0.19-10.49,0.1-18.94,0-24.22
			c0.39-5.68,0.58-14.2-1.25-24.3c-1.16-6.79-2.9-11.52-5.12-18.94c-2.41-8.13-5.6-19.41-10.81-33.77
			c-9.75-27.06-17.85-41.35-13.7-43.48c1.35-0.71,4.54,0.87,10.91,4.1c8.4,4.18,14.77,8.21,19.11,11.13
			c4.63,3.63,11.68,9.55,18.72,17.83c13.03,15.23,16.02,26.35,22.29,26.04c3.28-0.16,5.21-3.23,13.42-16.73
			c3.18-5.21,7.72-12.86,13.42-22.33c6.95-8.76,12.06-16.02,15.54-21.07c4.25-6.15,9.17-11.91,13.51-17.99
			c4.25-5.92,6.95-9.94,9.84-9.63c2.03,0.24,2.99,2.37,5.12,6.31c8.3,15.86,11.77,17.12,11.68,23.99c0,2.05-0.39,5.21-2.12,9.07
			c-3.86,9.39-8.88,22.72-13.42,39.14c-1.06,3.79-1.93,7.42-2.8,10.81c-0.77,3.23-2.7,11.52-4.63,23.28
			c-1.93,11.76-2.9,20.59-3.76,29.27c-1.06,9.78-1.64,17.6-2.22,26.04c-0.77,9.94-0.39,16.18-2.22,26.04
			c-2.41,12.94-5.02,15.47-6.66,16.73c-3.96,3-7.62,2.6-24.51,3.71c-13.42,0.87-24.03,1.5-35.52,3.08
			C508.72,860.31,507.37,861.81,504.28,860.23z"/>
		<path class="st3" d="M335.97,776.91c-4.63-31.4-6.18-32.9-10.71-63.6c-4.05-27.93-6.37-50.82-7.62-65.57
			c-0.29-6.23,0.68-11.2,1.54-14.6c1.35-5.13,2.9-11.2,8.4-16.65c2.12-2.13,4.15-3.31,8.01-5.76c6.27-3.87,11.68-6,16.41-7.81
			c10.33-3.95,18.82-5.84,22.58-6.55c7.53-1.5,11.29-2.21,13.42-1.89c10.13,1.74,11.87,12.31,26.83,33.53
			c5.98,8.44,6.18,7.42,15.63,20.52c6.76,9.31,10.71,14.76,14.67,21.38c0,0,15.25,25.33,22.49,61.55
			c2.22,10.97,2.99,19.33,3.47,24.78c3.76,43,6.95,85.53,8.78,109.44c-11.68,2.76-21.43,5.68-28.95,8.13
			c-11.1,3.71-19.4,7.1-24.9,9.39c-9.84,4.1-18.14,7.97-24.51,11.2c-6.27,3.31-11.58,5.76-15.63,7.42
			c-11.77,5.05-15.63,5.44-17.85,5.6c-4.92,0.32-10.23-0.47-13.42-1.89c-10.52-4.58-8.88-21.62-8.98-40.56
			C345.43,840.43,342.24,819.28,335.97,776.91z"/>
		<path class="st3" d="M613.24,850.61c3.28,1.89,4.92,0.39,28.95-0.16c10.91-0.24,18.53-0.16,20.56-0.16
			c3.67,0.08,13.32,0.24,24.03,1.03c10.13,0.79,23.84,2.37,40.44,5.76c3.28,1.34,5.31,1.1,6.47,0.71
			c9.55-3.39,0.87-30.06,0.39-75.43c-0.1-8.6,0.1-15.31,0.39-20.36c0.19-3.39,0.87-16.02,3.47-32.98
			c1.25-8.13,2.41-16.02,5.02-26.51c2.22-9,4.63-16.57,6.66-22.33c3.67-9.15,7.91-15.94,11.2-20.52c4.73-6.63,9.46-11.44,8.98-18.62
			c-0.29-3.55-1.64-6.39-2.22-7.42c-1.25-2.37-3.18-5.05-11.2-11.2c-3.28-2.53-7.82-5.76-13.42-9.31
			c-4.15-2.76-9.84-6.08-17.57-9.23c-0.48-0.24-0.87-0.32-0.97-0.39c-2.7-1.03-8.59-2.84-22.68-4.73
			c-5.21-0.71-12.35-1.5-20.94-2.05c-2.12,4.42-4.34,8.84-6.47,13.26c-2.22,3.71-5.02,7.73-8.4,11.91
			c-3.67,4.5-7.24,8.36-10.71,11.52c-1.35,1.1-3.18,2.92-4.54,5.44c-1.16,2.13-1.35,3.55-2.32,6.15c-1.25,3.55-2.61,5.6-3.86,7.81
			c-2.51,4.58-4.15,9.23-7.24,17.99c-1.25,3.47-3.96,11.6-7.24,24.46c-1.16,4.66-4.05,16.25-6.85,33.3
			c-2.9,17.52-2.12,18.39-4.92,38.43c-2.61,18.15-4.15,24.46-6.95,45.29C607.36,840.98,608.03,847.61,613.24,850.61z"/>
		<path class="st3" d="M420.61,912.47c-1.45-6,62.93-30.62,79.33-15.62c7.24,6.63,5.31,21.15-2.7,25.8c-8.01,4.73-17.76-3-48.06-7.1
			C429,912.79,421.09,914.52,420.61,912.47z"/>
		<path class="st3" d="M814.37,648.45c5.44-1.13,10.39,1.3,17.85,5.6c6.68,3.85,11.43,8.08,14.47,11.19c0,0,1.77,1.8,3.38,3.73
			c31.07,37.02,50.76,97.84,50.76,97.84c24.93,77.01,30.28,128.28,31.54,141.67c1.29,13.75,3.02,38.11-4.92,67.11
			c-6.35,23.2-14.84,34.6-17.22,37.68c-2.83,3.66-18.34,23.73-41.82,30.61c-29.58,8.68-57.97-7.63-89.79-25.9
			c-45.38-26.06-51.58-44.58-92.25-60.05c-19.08-7.26-35.9-10.1-46.78-11.37c9.65,3.87,23.55,10.57,36.38,22.33
			c9.84,9,20.07,21.7,17.76,23.59c-1.45,1.18-7.14-2.21-14.48-6.15c-9.26-4.97-22.39-11.52-50.38-21.78
			c-15.54-5.68-30.98-11.36-46.52-16.96c-14.09-4.42-28.18-8.84-42.37-13.26c0.58-1.66,1.45-4.18,2.7-7.1
			c2.03-4.81,3.09-6.47,4.54-9.71c3.47-7.58,4.83-14.2,6.18-20.52c0.68-3.23,1.06-5.92,1.35-7.81c6.18-0.79,14.96-1.66,25.38-2.37
			c33.3-2.13,58.49,0,77.79,1.74c22.29,1.97,50.96,5.68,83.87,12.94c5.4,1.42,12.74,3.39,21.33,6.15
			c10.62,3.39,18.63,5.92,28.57,10.57c8.98,4.1,15.54,8.13,25.19,13.97c6.08,3.63,11,6.86,14.48,9.15c-0.1-3-0.58-6.47-1.93-10.18
			c-4.92-13.97-17.76-21.38-22.49-23.83c-4.54-2.37-10.91-5.68-18.72-9.55c-7.53-3.71-11.39-5.52-11-6.39
			c0.39-1.03,6.08,0.08,16.79,1.34c12.06,1.5,11.58,0.95,20.56,2.05c6.37,0.79,19.88,2.53,36.19,7.1c6.37,1.81,14.77,4.5,24.42,8.52
			c-1.16-2.29-2.99-5.6-6.08-9.15c-1.06-1.18-3.57-3.95-10.71-9.15c-6.47-4.73-12.16-8.21-14.48-9.55
			c-10.04-5.68-32.91-13.57-64.08-17.36c2.32-19.25,4.54-38.51,6.85-57.76c0.87-9.55,2.51-17.28,3.86-22.8
			c1.93-7.81,4.15-14.2,8.78-26.99c2.37-6.53,4.42-12.55,7.62-20.59c2.79-7.01,5.34-12.92,7.36-17.42
			c-2.8,2.99-6.54,7.05-10.83,11.98c-3.71,4.25-6.69,7.65-10.33,12.23c-8.11,10.21-9.75,14.01-11.48,13.57
			c-3.33-0.85-2.19-16.12-1.16-23.83c0.77-5.76,1.93-14.12,3.86-24.15c1.83-9.94,3.18-15.7,5.69-23.83
			c1.4-4.54,3.86-12.06,8.17-19.57C803.76,656.4,807.51,649.87,814.37,648.45z"/>
		<path class="st3" d="M166.07,809.58c7.19-22.91,14.97-40.6,19.93-51.81c3.64-8.22,9.44-20.25,21.01-44.3
			c1.62-3.37,3.58-7.46,6.4-12.85c4.98-9.49,9.81-17.56,15.78-27.55l0,0c3.2-4.89,6.4-9.78,9.6-14.67c3.2-4.89,6.4-9.78,9.6-14.67
			c1.26-1.63,3.34-3.99,6.46-6.23c2.41-1.73,6.1-4.38,11.54-5.05c2.31-0.29,6.03-0.68,9.6,1.13c6.21,3.16,7.11,10.4,7.2,11.29
			c0.89,4.59,1.78,9.18,2.68,13.77c3.14,13.13,6.01,27.19,8.4,42.14c3.19,19.99,5.08,38.77,6.08,56.1c1.25,2.68,0.97,4.97,0,5.44
			c-0.97,0.47-3.38-0.79-4.92-3.39c-1.59-2.04-3.63-4.6-6.08-7.5c-8.45-10-26.87-30.15-29.8-28.25
			c-2.66,1.72,10.01,19.86,26.42,58.15c1.31,3.05,8.16,16.41,13.32,34.01c6.08,20.75,12.16,41.5,18.34,62.18
			c-4.63-0.08-10.33,0.16-16.79,1.34c-10.13,1.89-18.05,5.37-23.26,8.13c-2.8,1.42-5.6,3.16-8.4,5.13
			c-19.21,13.65-25.58,33.38-27.8,44.19c1.64-1.66,3.96-3.87,6.85-6.47c5.21-4.58,9.65-7.89,11.1-8.84
			c11.29-7.97,30.21-14.52,32.81-11.2c0.97,1.26-0.87,3.39-4.54,9.15c0,0-1.64,2.6-11.77,22.09c-3.38,6.55-7.43,16.41-9.55,30.22
			c5.4-10.42,11.87-17.99,16.79-23.04c7.05-7.18,13.51-11.6,15.63-13.02c2.99-1.97,7.14-4.73,13.32-7.5
			c8.59-3.79,15.83-5.21,17.95-5.6c3.28-0.63,11.87-1.97,29.05,0c13.51,1.58,23.55,4.18,29.05,5.6
			c29.05,7.65,43.53,11.52,60.32,16.73c12.93,4.1,29.63,9.63,49.12,16.73c89.56,31.17,105.58,43.87,103.65,49.71
			c-0.05,0.14-0.09,0.25-0.2,0.45c-7.56,14.84-93.77,22.64-141.92,29.03c-35.76,4.75-61.5,8.24-61.5,8.24
			c-30.39,4.13-41.59,5.73-41.82,4.71c-0.35-1.58,25.96-7.61,65.19-18.84c26.18-7.49,47.42-14.23,61.5-18.84
			c-16.16,2.55-32.57,5.29-49.2,8.24c-37.28,6.62-56.8,10.95-67.65,12.95c-38.14,7.05-103.06,19.04-151.54-12.95
			c-20.29-13.39-31.86-31.38-36.87-39.18c-13.42-20.88-17.77-39.61-20.94-53.83c-1.69-7.6-6.58-31.34-3.69-62.4
			C154.62,846.05,159.96,829.04,166.07,809.58z"/>
		<path class="st0" d="M227.2,491.27c3.18-2.53,6.85-2.92,9.75-3.31c7.53-0.95,13.61,1.18,16.02,2.05c5.21,1.89,8.3,4.5,10.62,6.39
			c5.69,4.73,8.69,9.94,10.42,14.12c-7.91-1.03-14.09-0.55-18.24,0c-6.18,0.87-7.62,1.97-13.03,2.05c-3.38,0-10.52,0-15.63-4.02
			c-3.76-3-4.34-6.63-4.44-7.26C222.66,500.66,222.18,495.22,227.2,491.27z"/>
		<path class="st0" d="M271.4,574.04c-3.57-2.37-4.44-5.37-5.12-7.73c-0.1-0.39-0.19-0.63-0.19-0.71
			c-1.16-4.66,1.45-9.23,2.22-10.65c3.67-6.15,6.56-6.94,10.04-11.91c1.83-2.6,3.96-6.63,4.63-12.47
			c5.69,7.42,9.46,13.81,11.97,18.54c2.22,4.1,3.28,6.86,3.67,10.42c0.29,2.76,0.77,8.6-4.25,13.1c-3.76,3.31-8.59,4.1-9.36,4.26
			C284.24,576.96,277.1,577.83,271.4,574.04z"/>
		<path class="st0" d="M189.27,512.42c2.7-2.29,5.89-2.76,8.4-3.08c6.47-0.87,11.68,1.03,13.7,1.89c4.44,1.74,7.14,4.1,9.17,5.92
			c4.83,4.42,7.53,9.23,8.98,13.02c-6.85-0.95-12.06-0.55-15.63,0c-5.31,0.79-6.56,1.89-11.2,1.89c-2.9,0-9.07,0-13.42-3.71
			c-3.28-2.76-3.76-6.15-3.86-6.71C185.41,521.1,184.93,516.13,189.27,512.42z"/>
		<path class="st0" d="M237.82,588.56c-2.99-2.05-3.76-4.66-4.34-6.71c-0.1-0.32-0.19-0.55-0.19-0.63c-1.06-4.1,1.06-8.21,1.64-9.39
			c0.87-1.58,1.64-2.76,2.32-3.71c3.18-4.26,4.63-5.44,5.79-7.26c1.25-2.13,2.12-5.52-0.29-11.13c7.72,8.05,12.74,14.52,14.09,16.89
			c1.35,2.21,2.12,4.42,2.12,4.42c0.29,0.79,0.48,1.58,0.68,2.45c0.19,0.71,0.29,1.5,0.39,2.29c0.29,2.45,0.77,7.5-3.28,11.44
			c-3.09,2.92-7.05,3.63-7.72,3.79C248.43,591.01,242.54,591.8,237.82,588.56z"/>
		<path class="st0" d="M178.27,621.31c-2.61-1.42-3.47-3.39-4.15-4.89c0-0.08-0.1-0.24-0.19-0.47c-0.19-0.39-0.77-2.05-0.39-4.73
			c0.19-1.18,0.58-3.39,2.22-5.6c1.64-2.13,3.09-2.45,4.44-3.71c1.64-1.58,2.99-4.5,1.16-10.81c4.63,5.37,8.11,9.55,9.65,11.76
			c1.83,2.68,2.8,4.42,3.38,6.86c0.48,1.81,1.35,5.76-1.45,9.15c-2.12,2.53-5.21,3.31-5.69,3.47
			C186.86,622.41,182.32,623.52,178.27,621.31z"/>
		<path class="st0" d="M207.61,605.29c-2.7-1.89-3.38-4.26-3.96-6.08c-0.1-0.32-0.1-0.47-0.19-0.55c-0.87-3.71,1.06-7.34,1.64-8.44
			c0.68-1.26,1.35-2.21,2.03-3.08c2.9-3.63,4.44-4.89,5.6-6.47c1.35-1.89,2.22-4.97,0.19-10.42c3.09,2.76,5.4,5.29,7.05,7.26
			c0.97,1.18,3.28,4.1,5.5,7.97c1.25,2.13,2.03,4.02,2.51,6.23c0.19,0.63,0.29,1.34,0.29,2.05c0.19,2.21,0.68,6.79-3.18,10.34
			c-2.8,2.68-6.47,3.23-7.14,3.39C217.45,607.58,212.05,608.29,207.61,605.29z"/>
		<path class="st1" d="M401.31,549.74"/>
		<path class="st1" d="M528.93,493.29"/>
	</g>
</g>
</svg>
